# xmcd
#
# Track frame offsets:
#	150
#	3640
#	23110
#	41593
#	65975
#	86161
#	101835
#	144721
#	159304
#	177994
#	202935
#	242220
#	274107
#	302993
#
# Disc length: 4659 seconds
#
# Revision: 1
# Processed by: cddbd v1.5.2PL0 Copyright (c) Steve Scherf et al.
# Submitted via: audiograbber 1.83.01
#
DISCID=ca12310e
DTITLE=NRPS - 72-04-13 Manley Fieldhouse, Lemonyne College, Syracuse NY
DYEAR=1900
DGENRE=
TTITLE0=Intro
TTITLE1=Workingman's Blues
TTITLE2=Henry
TTITLE3=Lochinvar
TTITLE4=California Day
TTITLE5=Down In The Boondocks
TTITLE6=Garden Of Eden
TTITLE7=Hello Mary Lou
TTITLE8=Sailing Song
TTITLE9=Glendale Train
TTITLE10=All I Ever Wanted
TTITLE11=I Don't Need No Doctor
TTITLE12=The Weight
TTITLE13=Willie and The Hand Jive
EXTD=
EXTT0=
EXTT1=
EXTT2=
EXTT3=
EXTT4=
EXTT5=
EXTT6=
EXTT7=
EXTT8=
EXTT9=
EXTT10=
EXTT11=
EXTT12=
EXTT13=
PLAYORDER=
